<svg width="44" height="50" viewBox="0 0 44 50" fill="none" xmlns="http://www.w3.org/2000/svg">
<g clip-path="url(#clip0_298_225)">
<path d="M26.3361 41.3358L26.4393 41.3577L22.0661 45.2655L17.6929 41.3577C20.5374 40.7315 23.4884 40.7221 26.3329 41.3358H26.3361Z" fill="#4A4A4A"/>
<path d="M2.23177 30.0194L11.0556 37.8758L7.67573 39.3975L14.5387 50L2.18339 37.6628L4.56674 36.5105C4.56674 36.5105 2.21564 30.0476 2.22854 30.0163L2.23177 30.0194Z" fill="#4A4A4A"/>
<path d="M33.083 37.8758L41.9069 30.0194C41.923 30.0507 39.5687 36.5137 39.5687 36.5137L41.9521 37.666L29.5967 50.0031L36.4597 39.4007L33.0798 37.8789L33.083 37.8758Z" fill="#4A4A4A"/>
<path d="M1.35769 23.2498L0.322441 22.6266L2.57678 18.5623L2.92509 16.696C3.9668 11.1443 6.47915 5.94954 10.2138 1.62527L11.6167 0.00327301L12.5649 1.1775C13.9936 2.94979 15.1418 4.92249 15.9674 7.0267L16.8833 9.35949L21.6049 8.84909H22.2499L27.1101 9.35949L28.026 7.0267C28.8517 4.92249 29.9998 2.94979 31.4285 1.1775L32.3767 0.00327301L33.7796 1.62527C37.5175 5.94954 40.0266 11.1412 41.0683 16.696L41.4166 18.5623L43.671 22.6266L42.6357 23.2498L43.9935 23.8792L42.0584 29.2023L40.1234 27.0104L36.1049 28.0844C35.7759 29.6469 35.1116 31.1249 34.1569 32.4244L33.8086 32.9003L34.3182 28.5792V26.7004L34.1182 26.6566C32.3735 26.2808 30.8319 25.3039 29.774 23.9042L30.7674 23.2529L28.7355 21.1456L25.433 23.8103L25.3685 25.7516C25.3137 27.3987 25.7136 29.0269 26.5264 30.4736L27.8648 27.6398L30.1546 26.2652L29.7708 27.5302C30.5255 27.2139 31.3672 27.1357 32.1703 27.311L32.6573 27.4175L32.6379 27.4801C32.0767 29.3275 30.5545 30.7554 28.6356 31.2345L28.4356 35.3208L24.0979 30.9339L21.9886 18.0832L19.8794 30.9339L15.5417 35.3208L15.3417 31.2345C13.4196 30.7523 11.9005 29.3275 11.3394 27.4801L11.32 27.4175L11.807 27.311C12.6101 27.1388 13.4486 27.2139 14.2065 27.5302L13.8227 26.2652L16.1125 27.6398L17.4509 30.4736C18.2637 29.0269 18.6636 27.3987 18.6087 25.7516L18.5442 23.8103L15.2417 21.1456L13.2099 23.2529L14.2033 23.9042C13.1454 25.3007 11.6038 26.2777 9.85905 26.6566L9.65909 26.7004V28.5792L10.1687 32.9003L9.82035 32.4244C8.86572 31.128 8.20135 29.6501 7.87239 28.0844L3.85392 27.0104L1.91886 29.2023L-0.0161972 23.8792L1.34157 23.2498H1.35769ZM28.197 13.2297L33.6861 17.2565L32.8798 13.6618L34.0021 14.1691L31.3156 9.09646L32.6863 5.27945L34.2021 7.64982C35.4599 9.61625 36.5887 11.6578 37.5755 13.7652L38.9236 16.6334L38.5366 15.0834C37.4594 10.7686 35.4341 6.72923 32.5992 3.24413L32.4347 3.0406C32.4154 3.05939 32.396 3.07817 32.3767 3.09696C29.6579 5.67086 28.1873 9.24363 28.1937 12.9291V13.2297H28.197ZM29.229 29.8693C30.1385 29.9444 30.8125 29.1115 30.7996 28.2817C30.7932 27.8715 30.3932 27.8465 30.1288 28.0719C29.9417 28.2316 29.816 29.3182 29.1967 28.8986L29.3225 28.3788C29.1935 28.2504 28.3453 28.8766 28.3131 29.0395C28.2389 29.4027 28.8775 29.8442 29.2258 29.8724L29.229 29.8693ZM14.6741 28.3756L14.7999 28.8954C14.1807 29.315 14.0581 28.2316 13.8678 28.0688C13.6034 27.8433 13.2035 27.8684 13.197 28.2786C13.1841 29.1084 13.8614 29.9413 14.7676 29.8661C15.116 29.8379 15.7545 29.3964 15.6804 29.0332C15.6481 28.8704 14.7999 28.2441 14.6709 28.3725L14.6741 28.3756ZM6.4211 13.7652C7.4112 11.6578 8.53676 9.61625 9.79455 7.64982L11.3103 5.27945L12.681 9.09646L9.9945 14.1691L11.1168 13.6618L10.3106 17.2565L15.7997 13.2297V12.9291C15.8061 9.24363 14.3355 5.67086 11.6167 3.09696C11.5974 3.07817 11.578 3.05939 11.5587 3.0406L11.3942 3.24413C8.55934 6.72923 6.53397 10.7686 5.45679 15.0834L5.06978 16.6334L6.41787 13.7652H6.4211Z" fill="#4A4A4A"/>
</g>
<defs>
<clipPath id="clip0_298_225">
<rect width="44" height="50" fill="white" transform="matrix(-1 0 0 1 44 0)"/>
</clipPath>
</defs>
</svg>
